<?xml version="1.0" encoding="utf-8"?>
<!-- Generator: Adobe Illustrator 21.0.2, SVG Export Plug-In . SVG Version: 6.00 Build 0)  -->
<svg version="1.1" id="Layer_1" xmlns="http://www.w3.org/2000/svg" xmlns:xlink="http://www.w3.org/1999/xlink" x="0px" y="0px"
	 viewBox="0 0 100 100" style="enable-background:new 0 0 100 100;" xml:space="preserve">
<path d="M50,5C25.2,5,5,25.2,5,50c0,24.8,20.2,45,45,45c24.8,0,45-20.2,45-45C95,25.2,74.8,5,50,5z M50,91C27.4,91,9,72.6,9,50
	S27.4,9,50,9s41,18.4,41,41S72.6,91,50,91z M52,34v44c0,1.1-0.9,2-2,2s-2-0.9-2-2V36h-4c-1.1,0-2-0.9-2-2s0.9-2,2-2h6
	C51.1,32,52,32.9,52,34z M52,22v4c0,1.1-0.9,2-2,2s-2-0.9-2-2v-4c0-1.1,0.9-2,2-2S52,20.9,52,22z"/>
</svg>
