<svg width="42" height="42" viewBox="0 0 42 42" fill="none" xmlns="http://www.w3.org/2000/svg">
<path fill-rule="evenodd" clip-rule="evenodd" d="M42 8C42 3.58172 38.4183 0 34 0H8C3.58172 0 0 3.58172 0 8V34C0 38.4183 3.58172 42 8 42H34C38.4183 42 42 38.4183 42 34V8ZM21 39C30.9411 39 39 30.9411 39 21C39 11.0589 30.9411 3 21 3C11.0589 3 3 11.0589 3 21C3 30.9411 11.0589 39 21 39ZM33 30.5C33 30.8774 33.4588 31.0467 33.689 30.7476C35.7654 28.0486 37 24.6685 37 21V21C37 18.6207 34.8329 17 32.4536 17H30C29.4477 17 29 17.4477 29 18C29 19.6569 27.6569 21 26 21H20.5C19.6716 21 19 21.6716 19 22.5C19 23.3284 19.6716 24 20.5 24H27C28.6569 24 30 25.3431 30 27V27.5C30 27.7761 30.2239 28 30.5 28C31.8807 28 33 29.1193 33 30.5V30.5ZM31 30.5C31 32.3906 30.175 34.2455 28.5061 35.1337C26.2676 36.3249 23.7126 37 21 37C18.2774 37 15.7137 36.32 13.4693 35.1205C13.4099 35.0888 13.4327 35 13.5 35V35C15.7091 35 17.5 33.2091 17.5 31C17.5 28.7909 15.7091 27 13.5 27H11.5553C8.29607 27 5.16926 25.0128 5.0176 21.7571C5.00591 21.5062 5 21.2538 5 21V21C5 20.1488 5.72033 19.5 6.57153 19.5H9.5C11.7091 19.5 13.5 17.7091 13.5 15.5C13.5 14.3954 14.3954 13.5 15.5 13.5H21.5C23.1569 13.5 24.5 12.1569 24.5 10.5C24.5 8.84315 23.1569 7.5 21.5 7.5H19.5C18.3954 7.5 17.5 6.60457 17.5 5.5V5.5C17.5 5.43219 17.547 5.3734 17.6133 5.35912C18.705 5.12387 19.838 5 21 5C25.6273 5 29.7958 6.96432 32.7172 10.1046C34.6177 12.1476 32.7903 15 30 15V15C28.3431 15 27 16.3431 27 18C27 18.5523 26.5523 19 26 19H20.5C18.567 19 17 20.567 17 22.5C17 24.433 18.567 26 20.5 26H27C27.5523 26 28 26.4477 28 27V27.5C28 28.8807 29.1193 30 30.5 30C30.7761 30 31 30.2239 31 30.5V30.5ZM13.5 33H11.3466C10.7474 33 10.1644 32.7877 9.73873 32.3659V32.3659C8.3935 31.033 9.50979 29 11.4036 29H13.5C14.6046 29 15.5 29.8954 15.5 31C15.5 32.1046 14.6046 33 13.5 33ZM9.5 17.5C7.38842 17.5 5.81577 15.5173 6.78808 13.6429C7.72827 11.8304 9.00502 10.2205 10.5356 8.89612C12.7806 6.95343 16.5311 9.5 19.5 9.5V9.5H21.5C22.0523 9.5 22.5 9.94772 22.5 10.5C22.5 11.0523 22.0523 11.5 21.5 11.5H15.5C13.2909 11.5 11.5 13.2909 11.5 15.5C11.5 16.6046 10.6046 17.5 9.5 17.5V17.5Z" fill="white"/>
</svg>
