<svg width="42" height="42" viewBox="0 0 42 42" fill="none" xmlns="http://www.w3.org/2000/svg">
<path fill-rule="evenodd" clip-rule="evenodd" d="M8 0C3.58172 0 0 3.58172 0 8V34C0 38.4183 3.58172 42 8 42H34C38.4183 42 42 38.4183 42 34V8C42 3.58172 38.4183 0 34 0H8ZM22.7491 10.4733C22.0714 8.94851 19.9346 8.87511 19.1539 10.3498L16.1814 15.9645L11.9673 12.5932C10.4665 11.3925 8.30108 12.7937 8.78136 14.6547L12.0317 27.2499C12.1457 27.6915 12.544 28 13 28H28.5C28.9449 28 29.3363 27.7061 29.4603 27.2788L33.0684 14.8511C33.615 12.9685 31.408 11.505 29.8865 12.7412L25.3833 16.4001L22.7491 10.4733ZM17.3838 17.9679L20.9215 11.2856L24.0862 18.4061C24.2126 18.6906 24.4643 18.9 24.767 18.9725C25.0698 19.045 25.389 18.9724 25.6306 18.7761L31.1477 14.2935L27.749 26H13.7747L10.7179 14.155L15.8753 18.2809C16.1079 18.467 16.4114 18.5397 16.7032 18.4791C16.9949 18.4186 17.2444 18.2312 17.3838 17.9679ZM13 30.5C12.4477 30.5 12 30.9477 12 31.5C12 32.0523 12.4477 32.5 13 32.5H28.5C29.0523 32.5 29.5 32.0523 29.5 31.5C29.5 30.9477 29.0523 30.5 28.5 30.5H13Z" fill="white"/>
</svg>
