<svg width="133" height="105" viewBox="0 0 133 105" fill="none" xmlns="http://www.w3.org/2000/svg">
<mask id="mask0_2_658" style="mask-type:alpha" maskUnits="userSpaceOnUse" x="40" y="20" width="85" height="85">
<circle cx="82.6013" cy="62.6856" r="42" fill="#C4C4C4"/>
</mask>
<g mask="url(#mask0_2_658)">
<circle cx="82.6013" cy="62.6856" r="42" fill="#FBFBFB"/>
<path d="M101.502 79.1856C116.502 98.1856 98.0024 121.186 98.0024 121.186L90.0024 116.686L84.5024 68.6856L92.5024 67.1856C92.5024 67.1856 97.4628 74.0688 101.502 79.1856Z" fill="#E5E5E5"/>
<path d="M79.0024 74.1856C82.3618 72.5059 83.0024 69.6856 81.0024 63.6856L79.0024 59.6856L93.0024 60.6856C93.0024 60.6856 95.0559 69.3975 98.0024 74.1856C114.002 100.186 94.5024 116.186 94.5024 116.186L61.0024 106.686C62.0024 90.6856 68.0024 79.6856 79.0024 74.1856Z" fill="#F2F2F2"/>
<path d="M89.0024 93.6856C93.3686 84.5185 84.4297 75.8187 82.5024 75.6856C82.5024 75.6856 83.0024 73.1856 87.5024 77.6856C92.0024 82.1856 92.961 88.4996 91.0024 93.6856C89.0438 98.8715 72.5024 120.686 72.5024 120.686C72.5024 120.686 84.6362 102.853 89.0024 93.6856Z" fill="#E5E5E5"/>
<circle cx="82.6013" cy="62.6856" r="41" stroke="black" stroke-width="2"/>
</g>
<path d="M86.2084 35.9895C54.3569 25.8 48.5024 8.18556 12.0024 4.18556" stroke="#E76F51" stroke-width="4" stroke-linecap="round"/>
<path d="M87.2866 41.7078C52.1493 30.2442 27.5025 12.6856 2.50235 17.6856" stroke="#F4A261" stroke-width="4" stroke-linecap="round"/>
<path d="M86.8134 46.4517C53.8809 34.4761 25.5023 29.1856 2.00234 31.1856" stroke="#E9C46A" stroke-width="4" stroke-linecap="round"/>
<path d="M84.5685 48.5866C53.523 40.4963 26.0024 37.6856 3.00246 47.1856" stroke="#2A9D8F" stroke-width="4" stroke-linecap="round"/>
<path d="M78.858 51.5456C57.1235 44.8033 29.5024 48.1856 17.0024 60.6856" stroke="#0077B6" stroke-width="4" stroke-linecap="round"/>
<mask id="mask1_2_658" style="mask-type:alpha" maskUnits="userSpaceOnUse" x="71" y="32" width="35" height="35">
<circle cx="88.8587" cy="49.5089" r="17.0771" transform="rotate(-25.1545 88.8587 49.5089)" fill="#F2F2F2"/>
</mask>
<g mask="url(#mask1_2_658)">
<circle cx="88.8587" cy="49.5089" r="17.0771" transform="rotate(-25.1545 88.8587 49.5089)" fill="#F2F2F2"/>
<path d="M90.0023 53.1856C100.502 56.6856 101.502 52.1856 107.002 47.6856C103.502 71.6856 90.0022 60.026 90.0023 53.1856Z" fill="black"/>
<ellipse cx="88.4506" cy="51.8368" rx="3.91828" ry="2.65115" transform="rotate(-48.4225 88.4506 51.8368)" fill="#F193AD"/>
<path d="M85.5644 42.2384C84.9105 42.4634 82.5335 43.6617 81.4266 46.0311C81.7658 44.2811 81.8127 43.1463 83.0158 42.3254C84.2189 41.5046 84.3889 41.3106 85.1374 41.3291C85.886 41.3476 86.2184 42.0134 85.5644 42.2384Z" fill="black"/>
</g>
<mask id="mask2_2_658" style="mask-type:alpha" maskUnits="userSpaceOnUse" x="92" y="13" width="30" height="39">
<path d="M121.498 18.0249C119.239 30.8198 110.437 46.5422 104.365 50.2111C98.2011 53.9349 93.7946 49.2979 92.5433 42.6116C92.1755 40.6461 93.3384 38.098 94.2462 37.6651C103.357 33.3202 111.074 24.7311 114.764 14.6659C115.413 12.8952 119.274 12.7166 120.101 13.7819C121.452 15.5245 121.868 16.4658 121.498 18.0249Z" fill="black"/>
</mask>
<g mask="url(#mask2_2_658)">
<ellipse cx="100.067" cy="42.752" rx="10.3802" ry="11.3847" transform="rotate(-31.2063 100.067 42.752)" fill="#0077B6"/>
<ellipse cx="108.311" cy="36.9745" rx="10.3802" ry="11.3847" transform="rotate(-31.2063 108.311 36.9745)" fill="#2A9D8F"/>
<ellipse cx="113.849" cy="29.3134" rx="10.3802" ry="12.3893" transform="rotate(-31.2063 113.849 29.3134)" fill="#F4A261"/>
<ellipse cx="116.628" cy="20.9749" rx="10.3802" ry="12.0544" transform="rotate(-31.2063 116.628 20.9749)" fill="#E9C46A"/>
<ellipse cx="119.58" cy="12.9227" rx="10.3802" ry="12.0544" transform="rotate(-31.2063 119.58 12.9227)" fill="#E76F51"/>
</g>
</svg>
