<svg width="42" height="42" viewBox="0 0 42 42" fill="none" xmlns="http://www.w3.org/2000/svg">
<path d="M13.2916 13.1521L12.5912 12.4384L13.2916 13.1521ZM20.5142 11.8151L21.0864 12.6352L20.5142 11.8151ZM15.6459 17.4982L16.5346 17.9566L16.5346 17.9566L15.6459 17.4982ZM28.8479 28.7083L28.1342 28.0079L28.8479 28.7083ZM24.5018 26.3541L24.0434 25.4653L24.5018 26.3541ZM24.3957 9.91484L24.7073 10.865L24.7073 10.865L24.3957 9.91484ZM32.0851 17.6042L31.1349 17.2926L31.1349 17.2926L32.0851 17.6042ZM23.5682 26.8039L23.1582 25.8918L23.5682 26.8039ZM32.5196 8.94811L32.4671 9.94673L32.5196 8.94811ZM33.0518 9.48034L34.0505 9.42782L33.0518 9.48034ZM19.5858 22.4141L16.1444 18.9728L14.7302 20.387L18.1716 23.8283L19.5858 22.4141ZM12.5912 12.4384C11.4546 13.5538 11.9152 15.1817 12.7269 15.9934L14.1411 14.5792C14.0131 14.4512 13.9335 14.277 13.918 14.1257C13.904 13.9895 13.9412 13.9156 13.9921 13.8658L12.5912 12.4384ZM21.0411 10.9651C18.0272 9.09668 14.8019 10.2687 12.5912 12.4384L13.9921 13.8658C15.8276 12.0643 18.0493 11.4635 19.9873 12.665L21.0411 10.9651ZM16.1082 18.8417C16.2447 18.538 16.3869 18.243 16.5346 17.9566L14.7571 17.0398C14.5926 17.3587 14.4349 17.6861 14.284 18.0218L16.1082 18.8417ZM16.5346 17.9566C17.7175 15.6633 19.2596 13.9098 21.0864 12.6352L19.942 10.995C17.831 12.4679 16.079 14.477 14.7571 17.0398L16.5346 17.9566ZM12.7269 15.9934L14.9388 18.2053L16.353 16.7911L14.1411 14.5792L12.7269 15.9934ZM18.1716 23.8283L21.613 27.2697L23.0272 25.8555L19.5858 22.4141L18.1716 23.8283ZM28.1342 28.0079C28.0843 28.0587 28.0105 28.0959 27.8743 28.082C27.7229 28.0664 27.5487 27.9868 27.4208 27.8589L26.0066 29.2731C26.8183 30.0848 28.4461 30.5454 29.5616 29.4088L28.1342 28.0079ZM29.335 22.0126C30.5364 23.9506 29.9356 26.1723 28.1342 28.0079L29.5616 29.4088C31.7313 27.1981 32.9033 23.9727 31.0348 20.9588L29.335 22.0126ZM23.9781 27.716C24.3139 27.5651 24.6412 27.4073 24.9602 27.2428L24.0434 25.4653C23.7569 25.6131 23.4619 25.7553 23.1582 25.8918L23.9781 27.716ZM24.9602 27.2428C27.5229 25.9209 29.5321 24.1689 31.005 22.0579L29.3648 20.9135C28.0901 22.7404 26.3366 24.2825 24.0434 25.4653L24.9602 27.2428ZM27.4208 27.8589L25.2089 25.647L23.7947 27.0612L26.0066 29.2731L27.4208 27.8589ZM21.0864 12.6352C22.1479 11.8945 23.3678 11.3044 24.7073 10.865L24.0841 8.96464C22.5839 9.45663 21.1837 10.1286 19.942 10.995L21.0864 12.6352ZM24.7073 10.865C27.033 10.1023 29.6993 9.80115 32.4671 9.94673L32.5721 7.94949C29.6022 7.79328 26.6833 8.1122 24.0841 8.96464L24.7073 10.865ZM31.005 22.0579C31.8714 20.8163 32.5433 19.4161 33.0353 17.9159L31.1349 17.2926C30.6956 18.6321 30.1054 19.852 29.3648 20.9135L31.005 22.0579ZM33.0353 17.9159C33.8878 15.3167 34.2067 12.3978 34.0505 9.42782L32.0532 9.53287C32.1988 12.3006 31.8976 14.967 31.1349 17.2926L33.0353 17.9159ZM21.613 27.2697C22.2198 27.8766 23.1553 28.0858 23.9781 27.716L23.1582 25.8918C23.1326 25.9033 23.078 25.9063 23.0272 25.8555L21.613 27.2697ZM16.1444 18.9728C16.0936 18.9219 16.0967 18.8673 16.1082 18.8417L14.284 18.0218C13.9142 18.8446 14.1234 19.7801 14.7302 20.387L16.1444 18.9728ZM32.4671 9.94673C32.2438 9.93499 32.065 9.75611 32.0532 9.53287L34.0505 9.42782C34.0085 8.62912 33.3708 7.9915 32.5721 7.94949L32.4671 9.94673Z" fill="#EE9B00"/>
<circle cx="26.6569" cy="15.3431" r="2" transform="rotate(45 26.6569 15.3431)" fill="#EE9B00"/>
<path d="M16.7573 19.5857L14.7477 21.5954C14.2955 22.0476 14.2955 22.7807 14.7477 23.2329L18.767 27.2522C19.2192 27.7044 19.9523 27.7044 20.4045 27.2522L22.4142 25.2425" stroke="#EE9B00" stroke-width="2"/>
<path d="M11.9939 28.5922C11.6033 28.9827 11.6033 29.6159 11.9939 30.0064C12.3844 30.3969 13.0175 30.3969 13.4081 30.0064L11.9939 28.5922ZM16.2365 24.3495L11.9939 28.5922L13.4081 30.0064L17.6507 25.7637L16.2365 24.3495Z" fill="#EE9B00"/>
<path d="M11.1005 25.2427C10.7099 25.6332 10.7099 26.2663 11.1005 26.6569C11.491 27.0474 12.1241 27.0474 12.5147 26.6569L11.1005 25.2427ZM13.9289 22.4142L11.1005 25.2427L12.5147 26.6569L15.3431 23.8284L13.9289 22.4142Z" fill="#EE9B00"/>
<path d="M15.3431 29.4853C14.9526 29.8759 14.9526 30.509 15.3431 30.8995C15.7337 31.2901 16.3668 31.2901 16.7573 30.8995L15.3431 29.4853ZM18.1716 26.6569L15.3431 29.4853L16.7573 30.8995L19.5858 28.0711L18.1716 26.6569Z" fill="#EE9B00"/>
<path d="M8.23943 27.5069L8.52578 28.465C9.03519 28.3127 9.3364 27.7885 9.21139 27.2717C9.08638 26.755 8.57885 26.4264 8.05618 26.5238L8.23943 27.5069ZM9.30151 23.5145C9.59834 23.9802 10.2165 24.1171 10.6823 23.8203C11.148 23.5235 11.2849 22.9053 10.9881 22.4395L9.30151 23.5145ZM10.1284 31.782L10.9974 32.2767C11.2202 31.8853 11.1539 31.3933 10.8355 31.0749C10.517 30.7564 10.025 30.6901 9.63366 30.9129L10.1284 31.782ZM6.90679 30.838L6.04377 31.3431L6.04377 31.3431L6.90679 30.838ZM7.71256 27.6989L8.20726 28.568L8.20726 28.568L7.71256 27.6989ZM14.4932 33.7606L15.4762 33.9439C15.5737 33.4212 15.2451 32.9137 14.7283 32.7887C14.2115 32.6636 13.6873 32.9649 13.5351 33.4743L14.4932 33.7606ZM19.5605 31.012C19.0948 30.7151 18.4766 30.852 18.1798 31.3178C17.8829 31.7835 18.0198 32.4017 18.4856 32.6985L19.5605 31.012ZM11.1621 35.0933L10.6569 35.9563L10.6569 35.9563L11.1621 35.0933ZM14.3012 34.2875L13.4321 33.7928L13.4321 33.7928L14.3012 34.2875ZM6.22154 25.9432C5.40656 25.1282 5.41576 23.8564 6.17009 23.102L4.75588 21.6878C3.18845 23.2552 3.24373 25.7938 4.80733 27.3574L6.22154 25.9432ZM6.17009 23.102C6.92442 22.3477 8.19625 22.3385 9.01124 23.1535L10.4255 21.7393C8.86185 20.1757 6.3233 20.1204 4.75588 21.6878L6.17009 23.102ZM8.05618 26.5238C7.42349 26.6417 6.72988 26.4515 6.22154 25.9432L4.80733 27.3574C5.79222 28.3423 7.15613 28.726 8.42268 28.4899L8.05618 26.5238ZM9.01124 23.1535C9.124 23.2662 9.22057 23.3875 9.30151 23.5145L10.9881 22.4395C10.8294 22.1906 10.6416 21.9555 10.4255 21.7393L9.01124 23.1535ZM9.63366 30.9129C9.0594 31.2398 8.16997 31.0164 7.76981 30.3328L6.04377 31.3431C6.94354 32.8803 9.00737 33.5707 10.6231 32.651L9.63366 30.9129ZM7.76981 30.3328C7.39103 29.6857 7.61375 28.9058 8.20726 28.568L7.21786 26.8298C5.62142 27.7386 5.12263 29.7695 6.04377 31.3431L7.76981 30.3328ZM8.20726 28.568C8.20034 28.5719 8.22128 28.56 8.29172 28.5363C8.36264 28.5124 8.42546 28.495 8.52578 28.465L7.95307 26.5487C7.85641 26.5776 7.49529 26.6719 7.21786 26.8298L8.20726 28.568ZM14.6427 37.1927C16.2063 38.7563 18.7448 38.8116 20.3122 37.2442L18.898 35.83C18.1437 36.5843 16.8719 36.5935 16.0569 35.7785L14.6427 37.1927ZM20.3122 37.2442C21.8797 35.6767 21.8244 33.1382 20.2608 31.5746L18.8466 32.9888C19.6616 33.8038 19.6523 35.0756 18.898 35.83L20.3122 37.2442ZM13.5101 33.5774C13.274 34.8439 13.6578 36.2078 14.6427 37.1927L16.0569 35.7785C15.5485 35.2702 15.3583 34.5766 15.4762 33.9439L13.5101 33.5774ZM20.2608 31.5746C20.0446 31.3584 19.8095 31.1706 19.5605 31.012L18.4856 32.6985C18.6126 32.7795 18.7338 32.8761 18.8466 32.9888L20.2608 31.5746ZM9.25929 31.2873C8.78054 32.1283 8.77883 33.095 9.04378 33.9127C9.30858 34.73 9.86768 35.4943 10.6569 35.9563L11.6672 34.2302C11.3461 34.0422 11.0767 33.6984 10.9464 33.2963C10.8163 32.8946 10.8529 32.5306 10.9974 32.2767L9.25929 31.2873ZM10.6569 35.9563C12.2305 36.8774 14.2615 36.3786 15.1702 34.7822L13.4321 33.7928C13.0942 34.3863 12.3143 34.609 11.6672 34.2302L10.6569 35.9563ZM15.1702 34.7822C15.3281 34.5048 15.4224 34.1436 15.4513 34.047L13.5351 33.4743C13.5051 33.5746 13.4877 33.6374 13.4638 33.7083C13.4401 33.7788 13.4282 33.7997 13.4321 33.7928L15.1702 34.7822Z" fill="#EE9B00"/>
</svg>
